<?xml version="1.0" encoding="utf-8"?>
<!-- Generator: Adobe Illustrator 17.1.0, SVG Export Plug-In . SVG Version: 6.00 Build 0)  -->
<!DOCTYPE svg PUBLIC "-//W3C//DTD SVG 1.1//EN" "http://www.w3.org/Graphics/SVG/1.1/DTD/svg11.dtd">
<svg version="1.1" id="Layer_2" xmlns="http://www.w3.org/2000/svg" xmlns:xlink="http://www.w3.org/1999/xlink" x="0px" y="0px"
	 viewBox="0 0 164.0020599 133" style="enable-background:new 0 0 164.0020599 133;" xml:space="preserve">
<g>
	<polygon style="fill:#969068;" points="64.042717,120.752655 65.3881683,130.1143036 77.5999527,126.9449234 
		64.2647247,131.9963379 61.8142929,117.9088364 98.514679,129.3793335 100.2769928,119.8660049 85.8405609,123.925827 
		101.8050461,117.9174271 99.9674606,132 	"/>
	<g>
		<path style="fill:#969068;" d="M1.2330983,93.2141342c0-0.0765305,0.0652949-0.1418228,0.1418183-0.1418228h4.3496432
			c0.076529,0,0.1418185,0.0652924,0.1418185,0.1418228v0.1850052c0,0.0751419-0.0652895,0.1405563-0.1418185,0.1405563H1.7547827
			v2.9992752h3.4382482c0.0765233,0,0.1418128,0.0654144,0.1418128,0.1418152v0.1850128
			c0,0.075264-0.0652895,0.1405563-0.1418128,0.1405563H1.7547827v3.2176208h3.9697771
			c0.076529,0,0.1418185,0.0652847,0.1418185,0.1405563v0.1738892c0,0.0764084-0.0652895,0.1418228-0.1418185,0.1418228H1.3749166
			c-0.0765234,0-0.1418183-0.0654144-0.1418183-0.1418228V93.2141342z"/>
		<path style="fill:#969068;" d="M7.5424361,100.1474457l0.108479-0.1738968
			c0.0333395-0.0541763,0.1195979-0.0751343,0.1961212-0.0111084c0.108479,0.0876389,0.5524979,0.4243164,1.1604357,0.4243164
			c0.6179132,0,1.0409689-0.3477859,1.0409689-0.7719803c0-0.499588-0.4884653-0.7054291-1.2148638-0.9780807
			c-0.7707195-0.2712631-1.3343306-0.6079407-1.3343306-1.2825546c0-0.4772339,0.4230556-1.1296234,1.4207096-1.1296234
			c0.5759869,0,1.0100346,0.2059708,1.2258511,0.3477936c0.0654154,0.04319,0.0875158,0.1307068,0.0444517,0.2059708
			l-0.0654154,0.1195908c-0.04319,0.0764008-0.1307049,0.0986328-0.2059717,0.054306
			c-0.0973654-0.0654221-0.5315342-0.3034668-0.9989157-0.3034668c-0.6832037,0-0.9323645,0.402092-0.9323645,0.6955795
			c0,0.4340439,0.3909788,0.6400146,1.0309925,0.8694763c0.8127728,0.3033371,1.529315,0.5758591,1.529315,1.368927
			c0,0.6523895-0.6722107,1.2060242-1.5404272,1.2060242c-0.73738,0-1.1826563-0.3045959-1.4218464-0.4883423
			C7.5424361,100.2671661,7.5103655,100.2017517,7.5424361,100.1474457z"/>
		<path style="fill:#969068;" d="M12.5371447,96.7573166H12.02771c-0.1084795,0-0.1307049-0.0542984-0.1307049-0.1418152v-0.1738968
			c0-0.0765305,0.0543022-0.1086044,0.1307049-0.1086044h0.5094347v-1.1851883c0-0.0862503,0.0652895-0.1405563,0.1405554-0.1405563
			l0.185008-0.0111084c0.0764027,0,0.1405554,0.0654144,0.1405554,0.1418152v1.1950378h1.5082254
			c0.0876417,0,0.141818,0.0654144,0.141818,0.1418152v0.140686c0,0.0875168-0.0541763,0.1418152-0.141818,0.1418152h-1.5082254
			v2.77108c0,0.5105743,0.0543032,0.7929459,0.5648737,0.7929459c0.3797398,0,0.8459854-0.2059708,0.9865408-0.2934875
			c0.098629-0.054306,0.141818-0.011116,0.1738949,0.04319l0.0765285,0.1307068
			c0.0430632,0.0764008,0.0320768,0.1418152-0.0333328,0.1850052c-0.1627874,0.1307068-0.6400194,0.4019623-1.2579336,0.4019623
			c-0.9002819,0-0.9766903-0.5326691-0.9766903-1.2282486V96.7573166z"/>
		<path style="fill:#969068;" d="M18.3235359,96.2245178c1.2147369,0,2.1804409,1.0322571,2.1804409,2.2716217
			c0,1.2714386-0.965704,2.2925797-2.1804409,2.2925797c-1.2258511,0-2.1804409-1.0211411-2.1804409-2.2925797
			C16.143095,97.2567749,17.0976849,96.2245178,18.3235359,96.2245178z M18.3235359,100.3435669
			c0.9545898,0,1.703083-0.8151703,1.703083-1.8474274c0-1.0001755-0.7484932-1.8153534-1.703083-1.8153534
			c-0.965704,0-1.7141972,0.8151779-1.7141972,1.8153534C16.6093388,99.5283966,17.357832,100.3435669,18.3235359,100.3435669z"/>
		<path style="fill:#969068;" d="M22.3747673,96.4748154c0-0.0764008,0.0641518-0.1418152,0.1516685-0.1418152h0.1086044
			c0.07514,0,0.11833,0.04319,0.1294422,0.1086044l0.04319,0.4673843c0.141819-0.1516724,0.7386417-0.6844711,1.6057167-0.6844711
			c1.2158756,0,1.7474098,0.7719879,1.7474098,1.9892502v2.3246536c0,0.0764084-0.0652905,0.1418228-0.141819,0.1418228h-0.1948586
			c-0.0764027,0-0.1405544-0.0654144-0.1405544-0.1418228V98.213768c0-1.0001831-0.4673824-1.5218658-1.2911415-1.5218658
			c-0.8904362,0-1.5083504,0.6955795-1.5515404,0.7497559v3.0967636c0,0.0875168-0.0430622,0.1418228-0.1418171,0.1418228
			h-0.2058468c-0.0752659,0-0.118454-0.0654144-0.118454-0.1418228V96.4748154z"/>
		<path style="fill:#969068;" d="M28.1624203,93.8442993c0-0.2059708,0.1627808-0.3810043,0.3687534-0.3810043
			c0.2059708,0,0.3687515,0.1750336,0.3687515,0.3810043c0,0.1961212-0.1627808,0.358902-0.3687515,0.358902
			C28.325201,94.2032013,28.1624203,94.0404205,28.1624203,93.8442993z M28.2931309,96.4748154
			c0-0.0764008,0.0641479-0.1418152,0.1406765-0.1418152H28.62854c0.0765285,0,0.1419506,0.0654144,0.1419506,0.1418152v4.0636063
			c0,0.0875168-0.0444584,0.1418228-0.1419506,0.1418228h-0.216959c-0.0752659,0-0.1184502-0.0654144-0.1184502-0.1418228
			V96.4748154z"/>
		<path style="fill:#969068;" d="M32.4393234,97.875824c0.4994583,0,0.9768181,0.1529312,1.0951462,0.1961212
			c0-0.9558487-0.0973663-1.4343491-0.954464-1.4343491c-0.7154064,0-1.2037525,0.2602768-1.3011169,0.2936172
			c-0.0876427,0.0319519-0.1418133-0.011116-0.1627827-0.0876389l-0.0543022-0.1307068
			c-0.0333328-0.0973663,0.0111122-0.1405563,0.0654163-0.1627808c0.0320759-0.0209656,0.5857162-0.3255692,1.4859962-0.3255692
			c1.3233452,0,1.3775215,0.7929459,1.3775215,1.9016037v2.4123001c0,0.0764084-0.0652847,0.1418228-0.1405563,0.1418228h-0.130703
			c-0.0764046,0-0.1084747-0.04319-0.1307068-0.1195908l-0.04319-0.3909836
			c-0.2823753,0.2602768-0.8139076,0.6190491-1.5082245,0.6190491c-0.8029213,0-1.4207096-0.5536346-1.4207096-1.4453278
			C30.6166477,98.5072556,31.2998505,97.875824,32.4393234,97.875824z M32.0915337,100.3645325
			c0.662365,0,1.2369652-0.402092,1.4429359-0.6733551v-1.1950378c-0.1405563-0.0652924-0.5747261-0.2281952-1.0951462-0.2281952
			c-0.8250217,0-1.3775196,0.4230576-1.3775196,1.0643311C31.0618038,99.9624405,31.4959717,100.3645325,32.0915337,100.3645325z"/>
		<path style="fill:#969068;" d="M36.1440277,96.4748154c0-0.0764008,0.0641518-0.1418152,0.1516685-0.1418152h0.1086044
			c0.0751419,0,0.1183319,0.04319,0.1294441,0.1086044l0.04319,0.4673843
			c0.141819-0.1516724,0.7387657-0.6844711,1.6057167-0.6844711c1.2160072,0,1.7475357,0.7719879,1.7475357,1.9892502v2.3246536
			c0,0.0764084-0.0654182,0.1418228-0.141819,0.1418228h-0.1948586c-0.0765305,0-0.1406822-0.0654144-0.1406822-0.1418228V98.213768
			c0-1.0001831-0.4673805-1.5218658-1.2911415-1.5218658c-0.8904343,0-1.5083504,0.6955795-1.5514069,0.7497559v3.0967636
			c0,0.0875168-0.0431976,0.1418228-0.1418228,0.1418228h-0.2059746c-0.0752563,0-0.118454-0.0654144-0.118454-0.1418228V96.4748154
			z"/>
		<path style="fill:#969068;" d="M45.284935,93.2141342c0-0.0765305,0.0654144-0.1418228,0.141819-0.1418228h2.3111458
			c1.3343277,0,2.2457314,0.7719879,2.2457314,1.9670258c0,0.8583603-0.5216866,1.4897842-1.1937752,1.7610474
			c0.7695808,0.2059708,1.4318199,0.7721024,1.4318199,1.8153458c0,1.2172623-0.9768143,2.0645142-2.3864098,2.0645142H45.426754
			c-0.0764046,0-0.141819-0.0654144-0.141819-0.1418228V93.2141342z M47.8784561,100.2239761
			c1.0519562,0,1.7894592-0.6733551,1.7894592-1.6193542c0-0.9681091-0.8237572-1.5439682-1.8547516-1.5439682h-2.0287704v3.1633224
			H47.8784561z M47.8131638,96.593277c1.0198822,0,1.6167068-0.6401443,1.6167068-1.5317154
			c0-0.9458771-0.6511269-1.5107498-1.6919708-1.5107498h-1.9423943v3.0424652H47.8131638z"/>
		<path style="fill:#969068;" d="M52.0826187,96.4748154c0-0.0764008,0.0654144-0.1418152,0.1405525-0.1418152h0.1948586
			c0.0765305,0,0.141819,0.0654144,0.141819,0.1418152v2.3357773c0,1.0112915,0.4662514,1.5218582,1.2912674,1.5218582
			c0.9002876,0,1.3984833-0.7066879,1.4318237-0.7608643v-3.0967712c0-0.0875092,0.0543022-0.1418152,0.1405525-0.1418152h0.1961212
			c0.0752678,0,0.140564,0.0654144,0.140564,0.1418152v4.0636063c0,0.0764084-0.0652962,0.1418228-0.140564,0.1418228h-0.130703
			c-0.08638,0-0.1195946-0.0654144-0.1307068-0.1307068l-0.04319-0.4230576
			c-0.1195908,0.1516724-0.6401405,0.6622391-1.4972382,0.6622391c-1.2147293,0-1.735157-0.7497482-1.735157-1.9781265V96.4748154z"
			/>
		<path style="fill:#969068;" d="M57.7074966,100.1474457l0.1086044-0.1738968
			c0.0332069-0.0541763,0.1195869-0.0751343,0.1959877-0.0111084c0.1086044,0.0876389,0.5524979,0.4243164,1.1605606,0.4243164
			c0.6177902,0,1.040844-0.3477859,1.040844-0.7719803c0-0.499588-0.4883461-0.7054291-1.2147369-0.9780807
			c-0.7708473-0.2712631-1.3344574-0.6079407-1.3344574-1.2825546c0-0.4772339,0.4230576-1.1296234,1.4207077-1.1296234
			c0.5759888,0,1.0100327,0.2059708,1.225853,0.3477936c0.0654144,0.04319,0.0876427,0.1307068,0.0444527,0.2059708
			l-0.0654144,0.1195908c-0.0430641,0.0764008-0.1307068,0.0986328-0.2058449,0.054306
			c-0.0974922-0.0654221-0.5315285-0.3034668-0.9990463-0.3034668c-0.6832008,0-0.9322357,0.402092-0.9322357,0.6955795
			c0,0.4340439,0.3908539,0.6400146,1.0309982,0.8694763c0.8126411,0.3033371,1.5291824,0.5758591,1.5291824,1.368927
			c0,0.6523895-0.6720886,1.2060242-1.5403023,1.2060242c-0.7375031,0-1.182785-0.3045959-1.4219704-0.4883423
			C57.7074966,100.2671661,57.6754112,100.2017517,57.7074966,100.1474457z"/>
		<path style="fill:#969068;" d="M62.3877487,93.8442993c0-0.2059708,0.1627884-0.3810043,0.3687515-0.3810043
			c0.2058449,0,0.3687515,0.1750336,0.3687515,0.3810043c0,0.1961212-0.1629066,0.358902-0.3687515,0.358902
			C62.5505371,94.2032013,62.3877487,94.0404205,62.3877487,93.8442993z M62.5184517,96.4748154
			c0-0.0764008,0.0641518-0.1418152,0.1405563-0.1418152h0.1948586c0.0765266,0,0.141819,0.0654144,0.141819,0.1418152v4.0636063
			c0,0.0875168-0.0443268,0.1418228-0.141819,0.1418228h-0.2170868c-0.0751381,0-0.1183281-0.0654144-0.1183281-0.1418228
			V96.4748154z"/>
		<path style="fill:#969068;" d="M65.1896362,96.4748154c0-0.0764008,0.0641556-0.1418152,0.1516724-0.1418152h0.1086044
			c0.0751419,0,0.1183319,0.04319,0.1294403,0.1086044l0.04319,0.4673843
			c0.1418152-0.1516724,0.7387695-0.6844711,1.6057205-0.6844711c1.2160034,0,1.7475357,0.7719879,1.7475357,1.9892502v2.3246536
			c0,0.0764084-0.0654221,0.1418228-0.1418228,0.1418228H68.639122c-0.0765305,0-0.140686-0.0654144-0.140686-0.1418228V98.213768
			c0-1.0001831-0.4673767-1.5218658-1.2911377-1.5218658c-0.8904343,0-1.5083542,0.6955795-1.5514069,0.7497559v3.0967636
			c0,0.0875168-0.0431976,0.1418228-0.1418228,0.1418228h-0.2059784c-0.0752563,0-0.118454-0.0654144-0.118454-0.1418228V96.4748154
			z"/>
		<path style="fill:#969068;" d="M72.9283981,96.2245178c1.139473,0,1.9644928,0.8361359,1.9644928,1.9892502
			c0,0.1738968,0,0.4229279-0.1627808,0.4229279h-3.4604645c0.0431824,0.9348907,0.7152786,1.7179871,1.6919632,1.7179871
			c0.5747299,0,1.0198822-0.2282028,1.280159-0.402092c0.0973663-0.0652924,0.1405563-0.0764084,0.1948547,0l0.10849,0.1516647
			c0.0333328,0.04319,0.0222168,0.1086044-0.0431976,0.1738968c-0.2169495,0.2170868-0.9001541,0.5105667-1.5735168,0.5105667
			c-1.3233414,0-2.1372528-1.0211411-2.1372528-2.2925797C70.7911453,97.2567749,71.6050568,96.2245178,72.9283981,96.2245178z
			 M74.415657,98.245842c0-0.8472443-0.5105667-1.5872803-1.4872589-1.5872803
			c-0.9545898,0-1.5946045,0.6955795-1.6489029,1.5872803H74.415657z"/>
		<path style="fill:#969068;" d="M76.470192,100.1474457l0.1086121-0.1738968
			c0.0332108-0.0541763,0.1195908-0.0751343,0.1959915-0.0111084c0.1086044,0.0876389,0.5524979,0.4243164,1.1605606,0.4243164
			c0.6179123,0,1.0408478-0.3477859,1.0408478-0.7719803c0-0.499588-0.4883499-0.7054291-1.2147446-0.9780807
			c-0.7708435-0.2712631-1.3343277-0.6079407-1.3343277-1.2825546c0-0.4772339,0.4229279-1.1296234,1.4207077-1.1296234
			c0.5758591,0,1.0100327,0.2059708,1.2258606,0.3477936c0.0652847,0.04319,0.0875092,0.1307068,0.0443192,0.2059708
			l-0.0652924,0.1195908c-0.04319,0.0764008-0.1308289,0.0986328-0.2059708,0.054306
			c-0.0974884-0.0654221-0.5315323-0.3034668-0.9989166-0.3034668c-0.6833267,0-0.9323578,0.402092-0.9323578,0.6955795
			c0,0.4340439,0.3908463,0.6400146,1.0309906,0.8694763c0.812645,0.3033371,1.5291901,0.5758591,1.5291901,1.368927
			c0,0.6523895-0.6720963,1.2060242-1.5403061,1.2060242c-0.7375031,0-1.182663-0.3045959-1.4219742-0.4883423
			C76.470192,100.2671661,76.4381256,100.2017517,76.470192,100.1474457z"/>
		<path style="fill:#969068;" d="M81.0308609,100.1474457l0.1084824-0.1738968
			c0.0333328-0.0541763,0.1195908-0.0751343,0.1961288-0.0111084c0.1084671,0.0876389,0.5524902,0.4243164,1.1604233,0.4243164
			c0.6179123,0,1.0408478-0.3477859,1.0408478-0.7719803c0-0.499588-0.4883499-0.7054291-1.2147446-0.9780807
			c-0.7707138-0.2712631-1.3343277-0.6079407-1.3343277-1.2825546c0-0.4772339,0.4229279-1.1296234,1.4207077-1.1296234
			c0.5758667,0,1.0100327,0.2059708,1.225853,0.3477936c0.0653,0.04319,0.0875168,0.1307068,0.0443268,0.2059708
			l-0.0652924,0.1195908c-0.04319,0.0764008-0.1306992,0.0986328-0.2059708,0.054306
			c-0.0973663-0.0654221-0.5315323-0.3034668-0.9989166-0.3034668c-0.683197,0-0.9323578,0.402092-0.9323578,0.6955795
			c0,0.4340439,0.390976,0.6400146,1.0309906,0.8694763c0.812767,0.3033371,1.5291901,0.5758591,1.5291901,1.368927
			c0,0.6523895-0.6720963,1.2060242-1.5403061,1.2060242c-0.7375031,0-1.182663-0.3045959-1.4219742-0.4883423
			C81.0308609,100.2671661,80.9987869,100.2017517,81.0308609,100.1474457z"/>
		<path style="fill:#969068;" d="M87.980217,100.5495377l3.3408737-7.5636063
			c0.0222244-0.0431824,0.0765305-0.0764008,0.1307068-0.0764008h0.032074c0.054306,0,0.10849,0.011116,0.1418152,0.0764008
			l3.3087997,7.5636063c0.0209656,0.0652924,0.0209656,0.1307068-0.0986252,0.1307068h-0.2811127
			c-0.0765305,0-0.1308289-0.054306-0.1517944-0.0973663l-0.8793259-2.0003586h-4.1436691l-0.8682098,2.0003586
			c-0.0222168,0.0430603-0.0765228,0.0973663-0.1516724,0.0973663H88.055481
			C87.980217,100.6802444,87.9468765,100.6370544,87.980217,100.5495377z M93.3387527,98.159462l-1.8548813-4.380455h-0.0209656
			l-1.888092,4.380455H93.3387527z"/>
		<path style="fill:#969068;" d="M96.373764,96.4748154c0-0.0764008,0.0641632-0.1418152,0.1516647-0.1418152h0.1084824
			c0.075264,0,0.1184616,0.04319,0.12957,0.1086044l0.0431976,0.4673843
			c0.1418076-0.1516724,0.7386322-0.6844711,1.6055832-0.6844711c1.2159958,0,1.7475357,0.7719879,1.7475357,1.9892502v2.3246536
			c0,0.0764084-0.0652924,0.1418228-0.1418228,0.1418228h-0.1948547c-0.0764008,0-0.1405563-0.0654144-0.1405563-0.1418228
			V98.213768c0-1.0001831-0.4673843-1.5218658-1.2912674-1.5218658c-0.8903122,0-1.5082245,0.6955795-1.5514145,0.7497559v3.0967636
			c0,0.0875168-0.04319,0.1418228-0.1418076,0.1418228h-0.2059784c-0.0751419,0-0.1183319-0.0654144-0.1183319-0.1418228V96.4748154
			z"/>
		<path style="fill:#969068;" d="M102.5622482,99.1472702c-0.118454-0.1516724-0.3355408-0.5647507-0.3355408-1.0864334
			c0-1.0433731,0.7263947-1.836319,1.8980637-1.836319c0.2712631,0,0.2712631,0,1.7796173,0
			c0.0862503,0,0.1405563,0.0652924,0.1405563,0.1405563v0.1195908c0,0.054306-0.032074,0.1197205-0.097496,0.1308365
			l-0.780571,0.0541763c0.2059708,0.1086044,0.6720886,0.4896088,0.6720886,1.3911591
			c0,0.966835-0.694313,1.8042374-1.8005753,1.8042374c-0.651123,0-1.042099-0.2393112-1.1826477-0.3909836
			c-0.0863876,0.0320816-0.553772,0.2713928-0.553772,0.7819595c0,0.5105743,0.434166,0.6301651,0.8571014,0.6301651h1.5736389
			c0.9323654,0,1.6057129,0.4241943,1.6057129,1.3910294c0,0.9237823-0.8904343,1.7722931-2.2136536,1.7722931
			c-1.4750061,0-2.1150208-0.8694763-2.1150208-1.6082458c0-0.6412735,0.4550018-1.0001831,0.6832047-1.1419983
			c-0.2170868-0.0430603-0.8459854-0.3366776-0.8459854-0.9890671
			C101.8469696,99.582695,102.4437943,99.2126846,102.5622482,99.1472702z M104.1136627,103.6042557
			c0.9766846,0,1.7253036-0.5758667,1.7253036-1.3158951c0-0.4994583-0.3033371-0.9557266-1.1062546-0.9557266h-1.3676682
			c-0.1084824,0.011116-0.8780518,0.3144531-0.8780518,1.0544815
			C102.4869919,102.9839401,103.0617065,103.6042557,104.1136627,103.6042557z M105.3838348,98.0497208
			c0-0.9126663-0.6190491-1.3911591-1.3343277-1.3911591c-0.8361359,0-1.3787842,0.6093292-1.3787842,1.3911591
			c0,0.7608719,0.4673843,1.3911591,1.3787842,1.3911591C104.8622818,99.4408798,105.3838348,98.821701,105.3838348,98.0497208z"/>
		<path style="fill:#969068;" d="M109.6719818,96.2245178c1.139473,0,1.9644928,0.8361359,1.9644928,1.9892502
			c0,0.1738968,0,0.4229279-0.1627808,0.4229279h-3.4604645c0.0431824,0.9348907,0.715271,1.7179871,1.6919632,1.7179871
			c0.5747223,0,1.0198822-0.2282028,1.2801514-0.402092c0.0973663-0.0652924,0.1405563-0.0764084,0.1948624,0l0.1084747,0.1516647
			c0.0333405,0.04319,0.0222321,0.1086044-0.04319,0.1738968c-0.2169571,0.2170868-0.9001541,0.5105667-1.5735092,0.5105667
			c-1.3233414,0-2.1372528-1.0211411-2.1372528-2.2925797C107.534729,97.2567749,108.3486404,96.2245178,109.6719818,96.2245178z
			 M111.1592407,98.245842c0-0.8472443-0.5105667-1.5872803-1.4872589-1.5872803
			c-0.9545898,0-1.5946045,0.6955795-1.6489105,1.5872803H111.1592407z"/>
		<path style="fill:#969068;" d="M113.4642029,93.2141342c0-0.0765305,0.0641479-0.1418228,0.1405563-0.1418228h0.1948624
			c0.0765228,0,0.1418076,0.0652924,0.1418076,0.1418228v7.3242874c0,0.0875168-0.0443192,0.1418228-0.1418076,0.1418228h-0.2170944
			c-0.0751343,0-0.1183243-0.0654144-0.1183243-0.1418228V93.2141342z"/>
		<path style="fill:#969068;" d="M115.8850861,100.1474457l0.1084824-0.1738968
			c0.0333405-0.0541763,0.1195984-0.0751343,0.1961212-0.0111084c0.1084747,0.0876389,0.5524979,0.4243164,1.1604309,0.4243164
			c0.6179199,0,1.0409698-0.3477859,1.0409698-0.7719803c0-0.499588-0.4884567-0.7054291-1.214859-0.9780807
			c-0.7707214-0.2712631-1.3343353-0.6079407-1.3343353-1.2825546c0-0.4772339,0.4230576-1.1296234,1.4207153-1.1296234
			c0.5759811,0,1.0100327,0.2059708,1.2258453,0.3477936c0.0654221,0.04319,0.0875168,0.1307068,0.0444565,0.2059708
			l-0.0654144,0.1195908c-0.04319,0.0764008-0.1307068,0.0986328-0.2059708,0.054306
			c-0.0973663-0.0654221-0.5315399-0.3034668-0.9989166-0.3034668c-0.6832047,0-0.9323654,0.402092-0.9323654,0.6955795
			c0,0.4340439,0.390976,0.6400146,1.0309906,0.8694763c0.8127747,0.3033371,1.5293121,0.5758591,1.5293121,1.368927
			c0,0.6523895-0.6722031,1.2060242-1.5404282,1.2060242c-0.7375031,0-1.1826477-0.3045959-1.4218445-0.4883423
			C115.8850861,100.2671661,115.8530197,100.2017517,115.8850861,100.1474457z"/>
		<path style="fill:#969068;" d="M123.9197388,93.1056519c0-0.0876389,0.0764008-0.1419449,0.1627808-0.1419449h0.1850052
			l5.206749,6.7928848c0.0111084,0,0.0111084,0,0.0111084,0v-6.5424576c0-0.0765305,0.0654144-0.1418228,0.1418152-0.1418228
			h0.2170868c0.0752716,0,0.1405487,0.0652924,0.1405487,0.1418228v7.4340363c0,0.0974884-0.0862427,0.1405487-0.1738892,0.1405487
			h-0.1405487c-0.0111237,0-0.0975037-0.032074-5.2511978-6.8580475h-0.011116v6.6077499
			c0,0.0764084-0.0641556,0.1418228-0.1405563,0.1418228h-0.2059631c-0.0765381,0-0.1418228-0.0654144-0.1418228-0.1418228
			V93.1056519z"/>
		<path style="fill:#969068;" d="M134.1470795,96.2245178c1.1395874,0,1.9646301,0.8361359,1.9646301,1.9892502
			c0,0.1738968,0,0.4229279-0.162796,0.4229279h-3.4606018c0.0431976,0.9348907,0.7152863,1.7179871,1.6921082,1.7179871
			c0.5747223,0,1.0198669-0.2282028,1.2801514-0.402092c0.0973663-0.0652924,0.1405487-0.0764084,0.1947327,0l0.1085968,0.1516647
			c0.0333557,0.04319,0.0222321,0.1086044-0.0431824,0.1738968c-0.2170868,0.2170868-0.9002838,0.5105667-1.5736389,0.5105667
			c-1.3232269,0-2.1372528-1.0211411-2.1372528-2.2925797C132.0098267,97.2567749,132.8238525,96.2245178,134.1470795,96.2245178z
			 M135.6343384,98.245842c0-0.8472443-0.5104523-1.5872803-1.4872589-1.5872803
			c-0.9544678,0-1.5946045,0.6955795-1.6489105,1.5872803H135.6343384z"/>
		<path style="fill:#969068;" d="M138.1231689,96.7573166h-0.5094452c-0.1084747,0-0.1306915-0.0542984-0.1306915-0.1418152
			v-0.1738968c0-0.0765305,0.0542908-0.1086044,0.1306915-0.1086044h0.5094452v-1.1851883
			c0-0.0862503,0.0652924-0.1405563,0.1405487-0.1405563l0.1850128-0.0111084c0.0764008,0,0.1405487,0.0654144,0.1405487,0.1418152
			v1.1950378h1.5082245c0.0876465,0,0.140686,0.0654144,0.140686,0.1418152v0.140686
			c0,0.0875168-0.0530396,0.1418152-0.140686,0.1418152h-1.5082245v2.77108c0,0.5105743,0.054306,0.7929459,0.5648804,0.7929459
			c0.3797455,0,0.8459778-0.2059708,0.9865417-0.2934875c0.0974884-0.054306,0.1418152-0.011116,0.1738892,0.04319
			l0.0764008,0.1307068c0.0431976,0.0764008,0.0320892,0.1418152-0.0332031,0.1850052
			c-0.1627808,0.1307068-0.640152,0.4019623-1.2579346,0.4019623c-0.9002838,0-0.9766846-0.5326691-0.9766846-1.2282486V96.7573166z
			"/>
		<path style="fill:#969068;" d="M141.5984039,96.506897c-0.032074-0.0973663-0.032074-0.1738968,0.0654144-0.1738968h0.2379303
			c0.054306,0,0.1197205,0.0222244,0.1418152,0.0974884l1.0200043,3.4234695h0.0098572l1.2911377-3.532074
			c0.0222321-0.0764008,0.0654144-0.0973663,0.1307068-0.0973663h0.0431824c0.054306,0,0.1086121,0.0320816,0.1307068,0.0973663
			l1.2900085,3.532074h0.0111084l1.0198822-3.4234695c0.0222321-0.075264,0.0876465-0.0974884,0.1418152-0.0974884h0.2380676
			c0.0974731,0,0.0974731,0.0765305,0.0653992,0.1738968l-1.3023834,4.1844635
			c-0.0209656,0.075264-0.0652924,0.0973587-0.129425,0.0973587h-0.0444641c-0.054184,0-0.1084747-0.032074-0.1294403-0.0973587
			l-1.3133698-3.6627808h-0.0099792l-1.3022461,3.6627808c-0.0222321,0.0652847-0.0765381,0.0973587-0.1307068,0.0973587h-0.0431976
			c-0.0641479,0-0.1084747-0.0220947-0.129425-0.0973587L141.5984039,96.506897z"/>
		<path style="fill:#969068;" d="M151.0315399,96.2245178c1.2147369,0,2.1804504,1.0322571,2.1804504,2.2716217
			c0,1.2714386-0.9657135,2.2925797-2.1804504,2.2925797c-1.2258453,0-2.1803131-1.0211411-2.1803131-2.2925797
			C148.8512268,97.2567749,149.8056946,96.2245178,151.0315399,96.2245178z M151.0315399,100.3435669
			c0.9545898,0,1.7032166-0.8151703,1.7032166-1.8474274c0-1.0001755-0.7486267-1.8153534-1.7032166-1.8153534
			c-0.9655762,0-1.7141876,0.8151779-1.7141876,1.8153534C149.3173523,99.5283966,150.0659637,100.3435669,151.0315399,100.3435669z
			"/>
		<path style="fill:#969068;" d="M155.0840302,96.4748154c0-0.0764008,0.0641632-0.1418152,0.140564-0.1418152h0.1295624
			c0.0653076,0,0.1195984,0.04319,0.1307068,0.1195908l0.0431976,0.445282
			c0.1084747-0.1516647,0.5426331-0.6733551,1.3565521-0.6733551c0.3465271,0,0.5858307,0.0973663,0.6720886,0.1307068
			c0.0974884,0.0320816,0.1516724,0.1084824,0.1195831,0.1948624l-0.0862427,0.2182159
			c-0.0333405,0.0752716-0.0986328,0.08638-0.1739044,0.054306c-0.0542908-0.0222244-0.2712555-0.1307068-0.5648651-0.1307068
			c-0.845993,0-1.2579346,0.6844635-1.2900085,0.7497559v3.0967636c0,0.0875168-0.0443268,0.1418228-0.1417999,0.1418228h-0.21698
			c-0.0752563,0-0.118454-0.0654144-0.118454-0.1418228V96.4748154z"/>
		<path style="fill:#969068;" d="M159.1451111,93.2141342c0-0.0765305,0.0641632-0.1418228,0.140686-0.1418228h0.1837463
			c0.0764008,0,0.1418152,0.0652924,0.1418152,0.1418228v4.868927l2.311142-1.6846466
			c0.054184-0.04319,0.1183319-0.0654144,0.1726379-0.0654144h0.3144531c0.1084747,0,0.1195831,0.1418152,0.0333405,0.1961212
			l-2.333374,1.7167206l2.6157379,2.2493973c0.08638,0.0765228,0.0320892,0.1850052-0.0542908,0.1850052h-0.3366852
			c-0.0652924,0-0.1195831-0.011116-0.2169495-0.08638l-2.506012-2.1630173v2.1075745
			c0,0.0875168-0.0431824,0.1418228-0.1418152,0.1418228h-0.2059631c-0.0752716,0-0.1184692-0.0654144-0.1184692-0.1418228
			V93.2141342z"/>
	</g>
	<path style="fill:#969068;stroke:#FFFFFF;stroke-width:1.18155;stroke-miterlimit:10;" d="M81.7979202,47.3912697"/>
	<g>
		<g>
			<path style="fill:#969068;" d="M71.1259537,52.9521294H54.4474258c-0.2713623,0-0.5032349,0.1935425-0.5032349,0.5043335
				v0.5820923c0,0.3490601,0.1159058,0.5808716,0.5032349,0.5808716h7.4094238v24.9807777
				c0,0.2713623,0.2318726,0.5043945,0.5031128,0.5043945h0.697998c0.3897095,0,0.621582-0.2330322,0.621582-0.5043945V54.6194267
				h7.4464111c0.310791,0,0.5056152-0.2318115,0.5056152-0.5043945v-0.6585693
				C71.6315689,53.1851006,71.4367447,52.9521294,71.1259537,52.9521294z M40.2551041,65.4029388
				c-3.9168701-1.2800293-6.4387817-2.7143593-6.4387817-6.0120277c0-2.2113037,1.7844238-5.1588135,6.5547485-5.1588135
				c2.9868774,0,5.5866089,1.7451782,5.7025146,1.8228149c0.3873291,0.2331543,0.621582,0.1159668,0.8534546-0.1936035
				c0.0776367-0.1554565,0.1948242-0.348999,0.310791-0.5043335c0.2712402-0.4267578,0-0.6981201-0.1554565-0.8153076
				c0,0-2.8314819-1.9781494-6.671936-1.9781494c-6.050293,0-8.3786621,3.9564209-8.3786621,6.8656006
				c0,4.4619141,2.9869385,6.0516396,7.4858398,7.6424599c4.6937866,1.5896606,7.5253296,3.1410522,7.5253296,6.5942383
				c0,2.831543-2.9868774,5.1981201-6.5165405,5.1981201c-3.916748,0-6.7878418-2.6379395-7.1750488-2.9868774
				c-0.310791-0.272522-0.5820312-0.1554565-0.8534546,0.1540527l-0.3501587,0.4662476
				c-0.3095074,0.4266968-0.1159668,0.6203003,0.1170654,0.8139038c0.5045166,0.4662476,3.6072998,3.1817627,8.2234497,3.1817627
				c4.4606323,0,8.4564209-3.0263062,8.4564209-6.9049072C48.9446793,69.0879364,45.5704727,67.2270355,40.2551041,65.4029388z
				 M23.7368565,52.9521294H8.1830835c-0.2712398,0-0.5056758,0.2329712-0.5056758,0.5043335v26.1437416
				c0,0.2713623,0.234436,0.5043945,0.5056758,0.5043945h15.5537729c0.2714233,0,0.5043945-0.2330322,0.5043945-0.5043945
				v-0.6203003c0-0.2713013-0.2329712-0.5043945-0.5043945-0.5043945H9.5396509V66.9938812h12.2967539
				c0.2714233,0,0.5043945-0.2330933,0.5043945-0.5043945v-0.6598511c0-0.2712402-0.2329712-0.5043335-0.5043945-0.5043335
				H9.5396509V54.6194267h14.1972055c0.2714233,0,0.5043945-0.2318115,0.5043945-0.5043945v-0.6585693
				C24.241251,53.1851006,24.0082798,52.9521294,23.7368565,52.9521294z M155.436142,52.9521294h-0.7745361
				c-0.2712402,0-0.5054932,0.2329712-0.5054932,0.5043335v23.3504066c0,0,0,0-0.0369873,0l-18.619812-24.243351h-0.6585693
				c-0.310791,0-0.5820312,0.1948853-0.5820312,0.5045166v26.5321693c0,0.2713623,0.2318726,0.5043945,0.5031128,0.5043945
				h0.7374878c0.2714233,0,0.5032959-0.2330322,0.5032959-0.5043945V56.0166435h0.0393677
				c18.4248047,24.3593178,18.7355957,24.4763832,18.7750854,24.4763832h0.5031128
				c0.310791,0,0.621582-0.1553345,0.621582-0.5043945V53.4564629
				C155.9417572,53.1851006,155.7099457,52.9521294,155.436142,52.9521294z M91.4844742,66.2563934
				c2.4049072-0.9693604,4.2670898-3.2187538,4.2670898-6.2834511c0-4.2670898-3.2583008-7.020813-8.0284424-7.020813h-8.2628784
				c-0.2712402,0-0.5031128,0.2329712-0.5031128,0.5043335v26.1437416c0,0.2713623,0.2318726,0.5043945,0.5031128,0.5043945
				h8.6130371c5.0415649,0,8.5317383-3.0252075,8.5317383-7.3699341
				C96.6050186,69.0102997,94.2395401,66.9938812,91.4844742,66.2563934z M80.7798233,54.6588554h6.9432983
				c3.7243652,0,6.050293,2.0163574,6.050293,5.3917236c0,3.1806641-2.133606,5.4695473-5.7790527,5.4695473h-7.2145386V54.6588554z
				 M88.2262344,78.4755096h-7.4858398V67.1874847h7.2539673c3.6849976,0,6.6325073,2.0557861,6.6325073,5.5076904
				C94.6268692,76.0706635,91.9901505,78.4755096,88.2262344,78.4755096z M115.180275,52.6413383
				c-0.1159058-0.2331543-0.310791-0.2714233-0.5056152-0.2714233h-0.1159668c-0.1948242,0-0.3872681,0.1159668-0.4662476,0.2714233
				l-11.9451904,26.9983559c-0.1184692,0.3095703,0,0.4649048,0.2713013,0.4649048h1.0852661
				c0.2713013,0,0.4661255-0.1936035,0.5426636-0.348938l3.1028442-7.1369019h14.8187866l3.142334,7.1369019
				c0.076416,0.1553345,0.2713013,0.348938,0.5425415,0.348938h1.0089111c0.4266968,0,0.4266968-0.2330322,0.3477783-0.4649048
				L115.180275,52.6413383z M107.8472672,71.1056366l6.7508545-15.6328773h0.0765381l6.6348877,15.6328773H107.8472672z"/>
		</g>
	</g>
	<path style="fill:#969068;" d="M119.5151596,15.7200632c0-8.1185007-16.8771439-14.7027626-37.7054977-14.7200632
		c-20.8284798,0.0173011-37.705616,6.6015625-37.705616,14.7200632c0,0.7066927,0.1357498,1.4035349,0.3823853,2.0903997
		c-0.0641441-0.2787113-0.1086044-0.559948-0.1086044-0.8423233c0-6.1378422,16.7377243-10.8674774,37.4318352-10.9006901
		c20.693985,0.0332127,37.4317093,4.7628484,37.4317093,10.9006901c0,0.2823753-0.0444489,0.563612-0.1084747,0.8423233
		C119.3795319,17.1235981,119.5151596,16.4267559,119.5151596,15.7200632z M46.0316582,20.4101715
		c4.9835968,5.9689999,19.1105003,10.4962006,35.7780037,10.5109749c16.6673813-0.0147743,30.794281-4.541975,35.7778778-10.5109749
		c-4.6567612,4.7579231-18.6578903,8.4292889-35.7778778,8.436739
		C64.6895447,28.8394604,50.688427,25.1680946,46.0316582,20.4101715z"/>
</g>
</svg>
